<?xml version="1.0" standalone="no"?>
<!DOCTYPE svg PUBLIC "-//W3C//DTD SVG 1.1//EN" "http://www.w3.org/Graphics/SVG/1.1/DTD/svg11.dtd" >
<svg xmlns="http://www.w3.org/2000/svg" xmlns:xlink="http://www.w3.org/1999/xlink" version="1.1">
<metadata>
Created by FontForge 20230101 at Thu Nov 30 21:20:46 2023
 By Unknown
Copyright (c) 2023 by Surplus Type Co..
</metadata>
<defs>
<font id="Graphyne-Regular" horiz-adv-x="292" >
  <font-face 
    font-family="Graphyne"
    font-weight="400"
    font-stretch="normal"
    units-per-em="1000"
    panose-1="0 0 5 0 0 0 0 0 0 0"
    ascent="800"
    descent="-200"
    x-height="500"
    cap-height="690"
    bbox="-455 -280 1143 917"
    underline-thickness="50"
    underline-position="-100"
    unicode-range="U+0020-E014"
  />
<missing-glyph horiz-adv-x="120" 
 />
    <glyph glyph-name=".notdef" horiz-adv-x="120" 
 />
    <glyph glyph-name=".null" horiz-adv-x="0" 
 />
    <glyph glyph-name="nonmarkingreturn" horiz-adv-x="333" 
 />
    <glyph glyph-name="space" unicode=" " horiz-adv-x="250" 
 />
    <glyph glyph-name="exclam" unicode="!" horiz-adv-x="310" 
d="M70 261l-20 429h210l-20 -429h-170zM59 0v210h192v-210h-192z" />
    <glyph glyph-name="quotedbl" unicode="&#x22;" horiz-adv-x="540" 
d="M61 334l-21 356h190l-21 -356h-148zM331 334l-21 356h190l-21 -356h-148z" />
    <glyph glyph-name="numbersign" unicode="#" horiz-adv-x="676" 
d="M80 398l19 106h103l33 186h127l-33 -186h76l32 186h128l-33 -186h104l-19 -106h-104l-20 -116h103l-19 -106h-103l-31 -176h-127l30 176h-76l-30 -176h-127l32 176h-105l19 106h105l19 116h-103zM386 398h-76l-21 -116h76z" />
    <glyph glyph-name="dollar" unicode="$" horiz-adv-x="663" 
d="M392 368q226 0 226 -151q0 -40 -16.5 -78.5t-49 -72.5t-89 -55t-128.5 -21v-60h-18v60q-131 6 -197.5 82t-73.5 191l202 21q2 -43 16.5 -68t52.5 -30v162q-40 2 -70 2q-104 0 -153 35t-49 115q0 85 75 142.5t197 57.5v70h18v-70q133 -4 202 -70t78 -174l-217 -19
q-7 57 -63 66v-132q24 -3 57 -3zM235 446q0 -29 18 -47t64 -26v132h-5q-41 0 -59 -17.5t-18 -41.5zM335 346v-161q93 0 93 80q0 38 -22 56.5t-71 24.5z" />
    <glyph glyph-name="percent" unicode="%" horiz-adv-x="792" 
d="M396 502q0 -98 -52.5 -148t-125.5 -50t-125.5 50t-52.5 148t52.5 148t125.5 50t125.5 -50t52.5 -148zM154 0l456 690h22l-456 -690h-22zM260 502q0 24 -12 37t-30 13q-19 0 -30.5 -13t-11.5 -37t11.5 -36.5t30.5 -12.5q18 0 30 12.5t12 36.5zM752 198q0 -98 -52.5 -148
t-125.5 -50t-125.5 50t-52.5 148t52.5 148t125.5 50t125.5 -50t52.5 -148zM616 198q0 24 -12 37t-30 13q-19 0 -30.5 -13t-11.5 -37t11.5 -36.5t30.5 -12.5q18 0 30 12.5t12 36.5z" />
    <glyph glyph-name="ampersand" unicode="&#x26;" horiz-adv-x="789" 
d="M546 284l203 -21q-8 -96 -70 -167.5t-193 -95.5l38 -105h-20l-37 102q-43 -7 -103 -7q-151 0 -237.5 55.5t-86.5 155.5q0 81 66.5 124t192.5 43h32l-118 322h249q61 0 105 -16t66 -43t31 -53.5t9 -54.5q0 -78 -56 -125.5t-183 -47.5h-76l59 -163q119 11 129 97zM393 495
h-89l47 -127h49q83 0 83 65q0 32 -20 47t-70 15zM373 185q17 0 25 1l-61 164q-107 0 -107 -74q0 -91 143 -91z" />
    <glyph glyph-name="quotesingle" unicode="'" horiz-adv-x="270" 
d="M61 334l-21 356h190l-21 -356h-148z" />
    <glyph glyph-name="parenleft" unicode="(" horiz-adv-x="391" 
d="M230 303q0 -42 4 -83t10 -73.5t15.5 -65.5t17.5 -55t19 -47.5t17.5 -38t16.5 -30t11 -20.5h-141q-66 74 -108 181.5t-42 231.5q0 123 42 230.5t108 181.5h141q-1 -3 -11 -20.5t-16.5 -30t-17.5 -38t-19 -47.5t-17.5 -55t-15.5 -65t-10 -73t-4 -83z" />
    <glyph glyph-name="parenright" unicode=")" horiz-adv-x="391" 
d="M161 303q0 42 -4 83t-10 73t-15.5 65t-17.5 55t-19 47.5t-17.5 38t-16.5 30t-11 20.5h141q66 -74 108 -181.5t42 -230.5q0 -124 -42 -231.5t-108 -181.5h-141q1 3 11 20.5t16.5 30t17.5 38t19 47.5t17.5 55t15.5 65.5t10 73.5t4 83z" />
    <glyph glyph-name="asterisk" unicode="*" horiz-adv-x="596" 
d="M97 276l123 137l-180 41l40 125l169 -74l-17 185h130l-17 -183l170 73l41 -124l-180 -40l122 -139l-106 -78l-93 159l-95 -159z" />
    <glyph glyph-name="plus" unicode="+" horiz-adv-x="674" 
d="M432 439h202v-190h-202v-202h-190v202h-202v190h202v202h190v-202z" />
    <glyph glyph-name="comma" unicode="," 
d="M50 -114v18q52 0 82 24t30 72h-112v210h192v-192q0 -66 -56.5 -99t-135.5 -33z" />
    <glyph glyph-name="hyphen" unicode="-" horiz-adv-x="375" 
d="M40 163v192h295v-192h-295z" />
    <glyph glyph-name="period" unicode="." 
d="M50 0v210h192v-210h-192z" />
    <glyph glyph-name="slash" unicode="/" horiz-adv-x="563" 
d="M523 690l-308 -690h-175l308 690h175z" />
    <glyph glyph-name="zero" unicode="0" horiz-adv-x="728" 
d="M683 345q0 -91 -27.5 -161.5t-73.5 -111.5t-101.5 -61.5t-116.5 -20.5t-116.5 20.5t-101.5 61.5t-73.5 111.5t-27.5 161.5t27.5 161.5t73.5 111.5t101.5 61.5t116.5 20.5t116.5 -20.5t101.5 -61.5t73.5 -111.5t27.5 -161.5zM493 345q0 74 -34 117t-95 43t-95 -43
t-34 -117t34 -117t95 -43t95 43t34 117z" />
    <glyph glyph-name="one" unicode="1" horiz-adv-x="330" 
d="M250 550l-205 -52v192h235v-690h-190v394q0 15 3 27.5t6.5 21.5t13 17t16.5 13t23 12t26.5 10.5t33.5 11.5t38 13v30z" />
    <glyph glyph-name="two" unicode="2" horiz-adv-x="637" 
d="M592 487q0 -64 -44 -118t-104.5 -85.5t-126.5 -53.5t-107 -30.5t-48 -8.5v-30l267 31h154v-192h-520v192q55 0 130 30t137 87.5t62 121.5q0 74 -63 74q-59 0 -67 -68l-217 19q4 48 22 89.5t50 77t86 56.5t124 21q69 0 122.5 -20.5t83 -53t44.5 -68t15 -71.5z" />
    <glyph glyph-name="three" unicode="3" horiz-adv-x="654" 
d="M330 345h-154v18h152q70 0 70 67q0 30 -16 52.5t-51 22.5q-59 0 -68 -68l-216 19q4 47 22 89t51 77.5t87 56.5t124 21q59 0 106 -13.5t74.5 -33.5t45.5 -46.5t24.5 -50t6.5 -46.5q0 -140 -183 -140v-30q204 0 204 -144q0 -86 -68 -146t-203 -60q-66 0 -118 16.5
t-83.5 42.5t-52.5 61t-29.5 69t-9.5 71l213 9q7 -69 80 -69q40 0 60.5 22.5t20.5 59.5q0 32 -21.5 52.5t-67.5 20.5z" />
    <glyph glyph-name="four" unicode="4" horiz-adv-x="666" 
d="M63 266v-30l293 47v113l190 33v-146h75v-192h-75v-91h-190v91h-311v184q27 11 66 48.5t78.5 92t67.5 128.5t28 146h261q0 -72 -69 -153t-157 -138t-163 -95t-94 -38z" />
    <glyph glyph-name="five" unicode="5" horiz-adv-x="622" 
d="M359 435q93 0 155.5 -54.5t62.5 -159.5q0 -37 -12.5 -74t-39.5 -74t-79 -60t-122 -23q-77 0 -133 24t-86 64.5t-44 82.5t-16 89l212 9q6 -70 66 -70q37 1 50.5 30.5t13.5 84.5q0 49 -18 75t-50 26q-59 0 -114 -70h-160l44 355h453v-192h-286l-4 -37q0 -3 -3 -7.5
t-8.5 -11t-10.5 -12.5t-14 -14.5t-15 -14.5t-16.5 -16t-15.5 -15l21 -22q2 2 13.5 14t17 17t18 15.5t23.5 16t26.5 12t33 9.5t37.5 3z" />
    <glyph glyph-name="six" unicode="6" horiz-adv-x="694" 
d="M339 504q-47 0 -73.5 -31t-26.5 -87l-44 -121h29q16 65 62.5 94.5t136.5 29.5q116 0 171 -52t55 -129q0 -37 -18 -74.5t-51.5 -70t-89.5 -53t-125 -20.5q-83 0 -147 31t-100.5 83t-54.5 113t-18 128t18 128t55 112.5t100.5 82.5t145.5 31q126 0 197 -72t81 -172l-216 -19
q-11 68 -87 68zM254 272q0 -37 27.5 -62t82.5 -25t82.5 25t27.5 62t-27.5 62t-82.5 25t-82.5 -25t-27.5 -62z" />
    <glyph glyph-name="seven" unicode="7" horiz-adv-x="571" 
d="M508 494v29l-199 -25h-264v192h481v-208q-43 -18 -74.5 -41t-52.5 -55.5t-33.5 -67t-19.5 -87t-9 -103.5t-2 -128h-238q0 75 12 137t31 106.5t51.5 82t64 61.5t78 45.5t83.5 34t91 27.5z" />
    <glyph glyph-name="eight" unicode="8" horiz-adv-x="708" 
d="M354 700q151 0 222.5 -53.5t71.5 -129.5q0 -37 -19.5 -67t-47.5 -46.5t-52.5 -25t-39.5 -8.5v-30q12 0 31 -4t44.5 -15.5t47 -28t36.5 -46.5t15 -67q0 -35 -14.5 -66t-47 -60t-96 -46t-151.5 -17t-151.5 17t-96 46t-47 60t-14.5 66q0 37 15 67t36.5 46.5t47 28t44.5 15.5
t31 4v30q-15 0 -39.5 8.5t-52.5 25t-47.5 46.5t-19.5 67q0 76 71.5 129.5t222.5 53.5zM354 363q104 0 104 61t-104 61t-104 -61t104 -61zM354 205q119 0 119 70t-119 70t-119 -70t119 -70z" />
    <glyph glyph-name="nine" unicode="9" horiz-adv-x="694" 
d="M360 186q95 0 95 122l44 117h-29q-16 -65 -62.5 -94.5t-136.5 -29.5q-116 0 -171 52t-55 129q0 90 74 154t210 64q83 0 147 -31t100.5 -83t54.5 -113t18 -128q0 -72 -16 -133.5t-50 -112t-94.5 -79.5t-142.5 -29q-73 0 -130.5 22.5t-91.5 60.5t-52 82.5t-21 93.5l213 9
q9 -73 96 -73zM440 418q0 37 -27.5 62t-82.5 25t-82.5 -25t-27.5 -62t27.5 -62t82.5 -25t82.5 25t27.5 62z" />
    <glyph glyph-name="colon" unicode=":" 
d="M50 290v210h192v-210h-192zM50 0v210h192v-210h-192z" />
    <glyph glyph-name="semicolon" unicode=";" 
d="M50 290v210h192v-210h-192zM50 -114v18q52 0 82 24t30 72h-112v210h192v-192q0 -66 -56.5 -99t-135.5 -33z" />
    <glyph glyph-name="equal" unicode="=" horiz-adv-x="560" 
d="M520 364h-480v190h480v-190zM520 120h-480v190h480v-190z" />
    <glyph glyph-name="question" unicode="?" horiz-adv-x="625" 
d="M590 505q0 -50 -24 -87t-58 -56t-67.5 -34t-57.5 -30.5t-24 -35.5h-190q0 44 22 76.5t53 49.5t62 29t53 24t22 26t-12.5 26t-43.5 12q-63 0 -73 -68l-217 19q4 48 22 89.5t51 77t88.5 56.5t127.5 21q129 0 197.5 -59.5t68.5 -135.5zM169 0v210h192v-210h-192z" />
    <glyph glyph-name="at" unicode="@" horiz-adv-x="822" 
d="M400 -23q172 0 305 104l11 -16q-56 -45 -138.5 -76.5t-177.5 -31.5q-156 0 -255.5 97t-99.5 256q0 172 108.5 281.5t270.5 109.5q154 0 253.5 -90t99.5 -236q0 -106 -38.5 -184.5t-110.5 -78.5q-108 0 -108 237h-30q-4 -10 -22.5 -56t-33 -76.5t-37 -68.5t-49 -58.5
t-54.5 -20.5q-42 0 -72 19t-44.5 49.5t-20.5 59.5t-6 59q0 129 72.5 225t189.5 96q83 0 136 -60h132q-22 -115 -22 -209q0 -92 36 -92q29 0 45.5 45.5t16.5 113.5q0 129 -90 217.5t-243 88.5q-162 0 -260.5 -106t-98.5 -265q0 -146 94 -239.5t241 -93.5zM400 262
q34 0 51 33.5t17 64.5q0 59 -54 59q-35 0 -54 -28t-19 -62q0 -30 16.5 -48.5t42.5 -18.5z" />
    <glyph glyph-name="A" unicode="A" horiz-adv-x="838" 
d="M793 0h-232l-57 197h-170l-57 -197h-232l273 690h202zM434 642h-30q0 -179 -15 -238l-50 -189h160l-50 189q-15 59 -15 238z" />
    <glyph glyph-name="B" unicode="B" horiz-adv-x="704" 
d="M455 370v-30q54 0 97.5 -15.5t75 -56.5t31.5 -103q0 -73 -48 -119t-157 -46h-404v690h393q106 0 153.5 -47.5t47.5 -117.5q0 -55 -32.5 -92t-72.5 -50t-84 -13zM250 363h128q76 0 76 61t-76 61h-128v-122zM250 205h139q80 0 80 70t-80 70h-139v-140z" />
    <glyph glyph-name="C" unicode="C" horiz-adv-x="768" 
d="M390 -10q-147 0 -248.5 93.5t-101.5 261.5q0 85 29.5 154t79 112t112 66t131.5 23q77 0 141.5 -25t103.5 -64.5t62 -82.5t27 -84l-215 -19q-11 29 -43.5 52t-81.5 23q-63 0 -107 -41t-44 -114t44 -114t109 -41q52 0 85.5 28t40.5 61l214 -9q-3 -47 -25.5 -94.5t-62 -90
t-105 -69t-145.5 -26.5z" />
    <glyph glyph-name="D" unicode="D" horiz-adv-x="728" 
d="M333 0h-283v690h283q156 0 255.5 -88t99.5 -257t-99.5 -257t-255.5 -88zM240 192h99q71 0 112.5 39.5t41.5 113.5t-41.5 113.5t-112.5 39.5h-99v-306z" />
    <glyph glyph-name="E" unicode="E" horiz-adv-x="617" 
d="M577 690v-195h-327v-132h317v-18h-317v-150h327v-195h-527v690h527z" />
    <glyph glyph-name="F" unicode="F" horiz-adv-x="617" 
d="M577 690v-195h-327v-134h317v-18h-317v-343h-200v690h527z" />
    <glyph glyph-name="G" unicode="G" horiz-adv-x="801" 
d="M601 0l-35 332h-30q0 -46 -0.5 -71t-1.5 -61.5t-4 -55.5t-7.5 -45.5t-12 -39.5t-18.5 -29t-25.5 -23t-33.5 -12t-43 -5q-147 0 -248.5 93.5t-101.5 261.5q0 85 29.5 154t79 112t112 66t131.5 23q77 0 141.5 -25t103.5 -64.5t62 -82.5t27 -84l-215 -19q-11 29 -43.5 52
t-81.5 23q-63 0 -107 -41t-44 -114t44 -114t109 -41q126 0 126 140h-218v18h460v-348h-155z" />
    <glyph glyph-name="H" unicode="H" horiz-adv-x="749" 
d="M509 379v311h190v-690h-190v361h-269v-361h-190v690h190v-311h269z" />
    <glyph glyph-name="I" unicode="I" 
d="M242 690v-690h-192v690h192z" />
    <glyph glyph-name="J" unicode="J" horiz-adv-x="571" 
d="M136 672v18h385v-461q0 -111 -67 -175t-189 -64q-148 0 -250 82l149 149q39 -36 87 -36q80 0 80 76v411h-195z" />
    <glyph glyph-name="K" unicode="K" horiz-adv-x="758" 
d="M713 0h-218l-316 569h-30l91 -212v-357h-190v690h190v-192l38 -68l188 260h238l-212 -293z" />
    <glyph glyph-name="L" unicode="L" horiz-adv-x="640" 
d="M595 0h-545v690h200v-485h345v-205z" />
    <glyph glyph-name="M" unicode="M" horiz-adv-x="958" 
d="M240 690l224 -612h30l224 612h190v-690h-190v556h-30l-209 -570l-209 570h-30v-556h-190v690h190z" />
    <glyph glyph-name="N" unicode="N" horiz-adv-x="690" 
d="M450 0l-180 542h-30v-542h-190v690h190l180 -542h30v542h190v-690h-190z" />
    <glyph glyph-name="O" unicode="O" horiz-adv-x="778" 
d="M738 345q0 -85 -29.5 -154t-79.5 -112t-111.5 -66t-128.5 -23t-128.5 23t-111.5 66t-79.5 112t-29.5 154t29.5 154t79.5 112t111.5 66t128.5 23t128.5 -23t111.5 -66t79.5 -112t29.5 -154zM543 345q0 73 -44.5 114t-109.5 41t-109.5 -41t-44.5 -114t44.5 -114t109.5 -41
t109.5 41t44.5 114z" />
    <glyph glyph-name="P" unicode="P" horiz-adv-x="676" 
d="M240 0h-190v690h334q130 0 191 -55t61 -142q0 -91 -69.5 -141t-182.5 -50h-144v-302zM240 320h93q64 0 88.5 23t24.5 66t-24.5 66t-88.5 23h-93v-178z" />
    <glyph glyph-name="Q" unicode="Q" horiz-adv-x="785" 
d="M389 -10q-67 0 -128.5 23t-111.5 66t-79.5 112t-29.5 154t29.5 154t79.5 112t111.5 66t128.5 23t128.5 -23t111.5 -66t79.5 -112t29.5 -154q0 -43 -19 -75.5t-50.5 -52t-79.5 -31t-98 -16t-114 -4.5v-30q49 0 76 -1t67 -4t64.5 -10.5t52.5 -20.5t47 -34t33 -49l28 -58
l-171 -83l-12 25q-29 61 -60.5 75t-112.5 14zM543 345q0 73 -44.5 114t-109.5 41t-109.5 -41t-44.5 -114t44.5 -114t109.5 -41t109.5 41t44.5 114z" />
    <glyph glyph-name="R" unicode="R" horiz-adv-x="691" 
d="M240 0h-190v690h320q79 0 134.5 -18t82.5 -49t38 -62.5t11 -68.5q0 -78 -56 -122t-162 -44v-30q107 0 140 -16.5t47 -75.5l46 -204h-195l-60 266q-6 23 -21.5 29.5t-50.5 6.5h-84v-302zM240 498v-178h93q64 0 88.5 23t24.5 66q0 42 -24.5 65.5t-88.5 23.5h-93z" />
    <glyph glyph-name="S" unicode="S" horiz-adv-x="723" 
d="M368 185q58 0 89 21.5t31 57.5q0 43 -38.5 64.5t-151.5 21.5q-131 0 -192 37t-61 113q0 89 82.5 144.5t226.5 55.5q83 0 145 -20.5t98 -57t55 -77.5t23 -89l-217 -19q-15 68 -112 68q-51 0 -81 -18.5t-30 -49.5q0 -43 47 -56t166 -13q68 0 114 -10.5t71 -32t35 -47.5
t10 -63q0 -93 -81.5 -159t-219.5 -66q-85 0 -148.5 22t-101.5 61t-57.5 86t-23.5 104l202 21q5 -47 32 -73t88 -26z" />
    <glyph glyph-name="T" unicode="T" horiz-adv-x="700" 
d="M255 498h-215v192h620v-192h-215v-498h-190v498z" />
    <glyph glyph-name="U" unicode="U" horiz-adv-x="717" 
d="M50 288v402h190v-360q0 -73 26 -109t92 -36t92.5 36t26.5 109v360h190v-402q0 -294 -309 -298q-308 4 -308 298z" />
    <glyph glyph-name="V" unicode="V" horiz-adv-x="838" 
d="M793 690l-273 -690h-202l-273 690h237l101 -374q21 -77 21 -227h30q0 159 19 227l103 374h237z" />
    <glyph glyph-name="W" unicode="W" horiz-adv-x="1126" 
d="M708 0l-130 563h-30l-130 -563h-120l-253 690h224l150 -468h30l114 492l114 -492h30l150 468h224l-253 -690h-120z" />
    <glyph glyph-name="X" unicode="X" horiz-adv-x="792" 
d="M276 0h-231l190 344l-189 346h229l95 -198l45 -196h30l-3 213l78 181h227l-189 -346l189 -344h-232l-94 195l-45 196h-29l3 -213z" />
    <glyph glyph-name="Y" unicode="Y" horiz-adv-x="838" 
d="M793 690l-279 -475v-215h-190v215l-279 475h237l108 -258q8 -19 11 -97l2 -67h30l2 67q2 70 13 96l108 259h237z" />
    <glyph glyph-name="Z" unicode="Z" horiz-adv-x="684" 
d="M547 468v30h-502v192h594v-192l-502 -276v-30h502v-192h-594v192z" />
    <glyph glyph-name="bracketleft" unicode="[" horiz-adv-x="406" 
d="M366 -109h-316v826h316v-160h-136v-506h136v-160z" />
    <glyph glyph-name="backslash" unicode="\" horiz-adv-x="563" 
d="M523 0h-175l-308 690h175z" />
    <glyph glyph-name="bracketright" unicode="]" horiz-adv-x="406" 
d="M356 717v-826h-316v160h136v506h-136v160h316z" />
    <glyph glyph-name="asciicircum" unicode="^" horiz-adv-x="582" 
d="M306 672h-30l-19 -260h-217l124 278h254l124 -278h-217z" />
    <glyph glyph-name="underscore" unicode="_" horiz-adv-x="538" 
d="M0 -162v120h538v-120h-538z" />
    <glyph glyph-name="grave" unicode="`" horiz-adv-x="309" 
d="M157 527l-117 183h170l59 -183h-112z" />
    <glyph glyph-name="a" unicode="a" horiz-adv-x="571" 
d="M521 281q0 -221 10 -281l-177 -1q-13 36 -13 80q0 40 35 133h-30q-18 -47 -34.5 -80t-41 -68.5t-56 -54.5t-67.5 -19q-49 0 -75.5 31t-26.5 81q0 65 40.5 106.5t98.5 57t135 15.5h12v8q0 34 -42 34q-41 0 -41 -25l-190 20q0 74 57.5 133t173.5 59q114 0 173 -61t59 -168z
M331 246v19q-52 0 -74 -10.5t-22 -36.5q0 -36 42 -36q54 0 54 64z" />
    <glyph glyph-name="b" unicode="b" horiz-adv-x="619" 
d="M114 231l84 -231h-148q10 77 10 186v504h190v-92q0 -53 -20 -175t-37 -174h30q8 27 24.5 107t32.5 117t42 37q101 0 176.5 -67.5t75.5 -192.5q0 -118 -67 -189t-153 -71q-111 0 -206 231q-3 7 -4 10h-30zM321 177q29 0 50 19t21 54q0 34 -21.5 53.5t-49.5 19.5
t-49.5 -19.5t-21.5 -53.5q0 -35 21 -54t50 -19z" />
    <glyph glyph-name="c" unicode="c" horiz-adv-x="586" 
d="M298 177q51 0 60 40l188 -8q-3 -92 -65.5 -155.5t-182.5 -63.5q-105 0 -179 69t-74 191t74 191t179 69q58 0 105 -19.5t75.5 -51.5t45.5 -66.5t21 -69.5l-190 -17q-16 37 -57 37q-35 0 -53 -22t-18 -51t18 -51t53 -22z" />
    <glyph glyph-name="d" unicode="d" horiz-adv-x="609" 
d="M370 0l56 182h-30q0 -1 -6 -21.5t-8.5 -29.5t-10.5 -30.5t-14 -33t-16.5 -28.5t-21 -26t-24.5 -16t-29 -7q-87 0 -154 71t-67 189q0 125 75.5 192.5t176.5 67.5q26 0 42 -37t32.5 -117t24.5 -107h30q-17 52 -37 174t-20 175v92h190v-690h-189zM298 177q29 0 50 19t21 54
q0 34 -21.5 53.5t-49.5 19.5t-49.5 -19.5t-21.5 -53.5q0 -35 21 -54t50 -19z" />
    <glyph glyph-name="e" unicode="e" horiz-adv-x="586" 
d="M546 269v-26h-319q3 -27 20.5 -46.5t50.5 -19.5q24 0 40 11.5t20 28.5l188 -8q-3 -92 -65.5 -155.5t-182.5 -63.5q-105 0 -179 69t-74 191t74 191t179 69q62 0 112 -23t78.5 -60t43 -77.5t14.5 -80.5zM227 259h133q0 24 -16.5 44t-45.5 20q-32 0 -50 -19t-21 -45z" />
    <glyph glyph-name="f" unicode="f" horiz-adv-x="408" 
d="M45 500l180 -30v30q-7 0 -28.5 5.5t-53 17t-55 37t-23.5 58.5q0 92 178 92q62 0 120 -10v-160q-74 0 -91 -6.5t-17 -33.5h108l-10 -192h-68v-308h-190v308h-50v192z" />
    <glyph glyph-name="g" unicode="g" horiz-adv-x="609" 
d="M316 -58q45 0 61 22.5t16 67.5q0 18 4 40t8 37t11 39.5t10 33.5h-30q-30 -101 -62 -138q-31 -33 -68 -34q-89 0 -155 62t-66 178q0 122 73 191t179 69q24 0 38.5 -31t32.5 -110l28 -120h30q-33 94 -33 172q0 48 7 79h159v-500q0 -104 -59.5 -172t-183.5 -68
q-60 0 -107 15.5t-72 38t-41 51t-21 50t-5 40.5l190 10q0 -9 15.5 -16t40.5 -7zM298 177q29 0 50 19t21 54q0 34 -21.5 53.5t-49.5 19.5t-49.5 -19.5t-21.5 -53.5q0 -35 21 -54t50 -19z" />
    <glyph glyph-name="h" unicode="h" horiz-adv-x="574" 
d="M50 690h190v-122q0 -48 -17 -149t-40 -170h30q5 20 14.5 62.5t17 71.5t17.5 61t23 49t27 17q102 0 157 -48.5t55 -130.5v-331h-190v259q0 59 -48 59q-21 0 -33.5 -16t-12.5 -43v-259h-190v690z" />
    <glyph glyph-name="i" unicode="i" horiz-adv-x="290" 
d="M50 538v170h190v-170h-190zM50 0v500h190v-500h-190z" />
    <glyph glyph-name="j" unicode="j" horiz-adv-x="290" 
d="M50 538v170h190v-170h-190zM240 500v-578q0 -68 -36.5 -115t-112.5 -47q-29 0 -101 10v190q34 0 47 10.5t13 46.5v483h190z" />
    <glyph glyph-name="k" unicode="k" horiz-adv-x="618" 
d="M578 0h-206l-175 410h-30l88 -255v-155h-205v690h190v-332l12 -28l105 170h209l-120 -192z" />
    <glyph glyph-name="l" unicode="l" horiz-adv-x="332" 
d="M240 710v-426q0 -64 7.5 -79t44.5 -15v-175q-61 -25 -125 -25q-67 0 -92 42.5t-25 124.5v533z" />
    <glyph glyph-name="m" unicode="m" horiz-adv-x="828" 
d="M509 259v-259h-190v259q0 58 -41 58q-17 0 -27.5 -16t-10.5 -42v-259h-190v309q0 99 -10 191h170q6 -27 6 -71q0 -87 -33 -180h30q7 22 23 100t33.5 119.5t42.5 41.5q86 0 127.5 -26.5t41.5 -83.5q0 -55 -29 -151h30q11 31 23 104.5t28 115t48 41.5q93 0 145 -47.5
t52 -131.5v-331h-190v259q0 58 -41 58q-17 0 -27.5 -16t-10.5 -42z" />
    <glyph glyph-name="n" unicode="n" horiz-adv-x="574" 
d="M40 500h170q6 -28 6 -79q0 -77 -33 -172h30q5 21 16 71t17.5 74t17 56t22.5 46t26 14q101 0 156.5 -49t55.5 -130v-331h-190v259q0 59 -48 59q-22 0 -34 -17.5t-12 -41.5v-259h-190v309q0 99 -10 191z" />
    <glyph glyph-name="o" unicode="o" horiz-adv-x="596" 
d="M298 -10q-105 0 -179 69t-74 191t74 191t179 69t179 -69t74 -191t-74 -191t-179 -69zM298 323q-35 0 -53 -22t-18 -51t18 -51t53 -22t53 22t18 51t-18 51t-53 22z" />
    <glyph glyph-name="p" unicode="p" horiz-adv-x="609" 
d="M134 231h-30q1 -3 19.5 -46.5t25.5 -61.5t24.5 -61.5t26 -69t19.5 -59.5t16 -59t5 -42v-62h-190v568q0 85 -10 162h169q7 -31 7 -79q0 -78 -33 -172h30l28 120q18 79 32.5 110t38.5 31q106 0 179 -69t73 -191q0 -118 -67 -189t-153 -71q-111 0 -206 231q-3 7 -4 10z
M311 182q30 0 50.5 17t20.5 51t-21.5 51t-49.5 17t-49.5 -17t-21.5 -51t20.5 -51t50.5 -17z" />
    <glyph glyph-name="q" unicode="q" horiz-adv-x="609" 
d="M368 -240l1 128q1 135 57 294h-30q0 -1 -6 -21.5t-8.5 -29.5t-10.5 -30.5t-14 -33t-16.5 -28.5t-21 -26t-24.5 -16t-29 -7q-87 0 -154 71t-67 189q0 122 73 191t179 69q24 0 38.5 -31t32.5 -110l28 -120h30q-33 94 -33 172q0 48 7 79h159v-730zM298 177q29 0 50 19t21 54
q0 34 -21.5 53.5t-49.5 19.5t-49.5 -19.5t-21.5 -53.5q0 -35 21 -54t50 -19z" />
    <glyph glyph-name="r" unicode="r" horiz-adv-x="513" 
d="M40 500h170q6 -28 6 -79q0 -60 -33 -172h30q7 23 16 64t16 71.5t16.5 61.5t22.5 47.5t28 16.5q69 0 156 -19l-67 -193q-72 17 -111 17q-26 0 -38 -11t-12 -41v-263h-190v309q0 99 -10 191z" />
    <glyph glyph-name="s" unicode="s" horiz-adv-x="569" 
d="M291 176q48 0 48 35q0 36 -96 36q-188 0 -188 109q0 68 62 111t160 43q64 0 112.5 -18t74 -47t38 -61t12.5 -66l-190 -20q0 26 -42 26t-42 -28q0 -20 20.5 -26.5t62.5 -6.5q109 0 155 -24t46 -87q0 -73 -57 -117.5t-168 -44.5q-127 0 -185 56.5t-58 145.5l190 20
q0 -15 11.5 -25.5t33.5 -10.5z" />
    <glyph glyph-name="t" unicode="t" horiz-adv-x="418" 
d="M353 308l-68 -1q0 -85 6 -103.5t34 -18.5h33v-185q-54 -10 -105 -10q-88 0 -123 47.5t-35 145.5v125h-50v192h32q25 0 31.5 11t6.5 57v81l190 20v-44q0 -54 -53 -85.5t-122 -31.5v-30l233 22z" />
    <glyph glyph-name="u" unicode="u" horiz-adv-x="565" 
d="M524 0h-175q-15 41 -15 73q0 18 4 37.5t9 35t23 66.5h-30q-17 -43 -30.5 -73t-35 -69t-45.5 -59.5t-49 -20.5q-59 0 -94.5 45.5t-35.5 123.5v341h190v-259q0 -59 42 -59t42 59v259h190v-309q0 -99 10 -191z" />
    <glyph glyph-name="v" unicode="v" horiz-adv-x="632" 
d="M274 500l25 -242q2 -18 2 -148h30q0 130 2 148l25 242h229l-198 -500h-145l-199 500h229z" />
    <glyph glyph-name="w" unicode="w" horiz-adv-x="904" 
d="M351 146l-11 354h224l-11 -354h30q0 81 8 148l23 206h245l-185 -500h-136l-71 349h-30l-71 -349h-136l-185 500h245l23 -206q8 -67 8 -148h30z" />
    <glyph glyph-name="x" unicode="x" horiz-adv-x="596" 
d="M341 236l-15 264h220l-100 -230l105 -270h-225l-25 167l-20 125h-30l14 -292h-220l105 270l-100 230h220l21 -139l20 -125h30z" />
    <glyph glyph-name="y" unicode="y" horiz-adv-x="632" 
d="M587 500l-190 -479q-26 -65 -38.5 -95t-31 -67t-31.5 -50.5t-34.5 -27.5t-44.5 -17.5t-57 -3.5q-39 0 -102 9v190q90 -4 102 -4q30 0 50 9.5t26 18.5t6 16q0 5 -56 147l-141 354h229l25 -307q2 -24 2 -148h30q0 124 2 148l25 307h229z" />
    <glyph glyph-name="z" unicode="z" horiz-adv-x="513" 
d="M314 278v30h-269v192h423v-192l-269 -86v-30h269v-192h-423v192z" />
    <glyph glyph-name="braceleft" unicode="{" horiz-adv-x="427" 
d="M45 273v60q58 0 82.5 18.5t24.5 62.5q0 33 -5 77t-5 61q0 93 61 128t179 35v-140q-60 0 -60 -36q0 -20 2.5 -54t2.5 -47q0 -77 -52 -98.5t-184 -21.5v-30q132 0 184 -21.5t52 -98.5q0 -13 -2.5 -47t-2.5 -54q0 -36 60 -36v-140q-118 0 -179 35t-61 128q0 17 5 61t5 77
q0 44 -24.5 62.5t-82.5 18.5z" />
    <glyph glyph-name="bar" unicode="|" horiz-adv-x="118" 
d="M50 -250v1050h18v-1050h-18z" />
    <glyph glyph-name="braceright" unicode="}" horiz-adv-x="427" 
d="M382 333v-60q-58 0 -82.5 -18.5t-24.5 -62.5q0 -33 5 -77t5 -61q0 -93 -61 -128t-179 -35v140q60 0 60 36q0 20 -2.5 54t-2.5 47q0 77 52 98.5t184 21.5v30q-132 0 -184 21.5t-52 98.5q0 13 2.5 47t2.5 54q0 36 -60 36v140q118 0 179 -35t61 -128q0 -17 -5 -61t-5 -77
q0 -44 24.5 -62.5t82.5 -18.5z" />
    <glyph glyph-name="asciitilde" unicode="~" horiz-adv-x="830" 
d="M533 393q32 0 47 21t19 63l191 -36q-8 -103 -58.5 -168t-139.5 -65q-54 0 -161 40.5t-134 40.5q-32 0 -47 -21t-19 -63l-191 36q8 103 58.5 168t139.5 65q60 0 166.5 -40.5t128.5 -40.5z" />
    <glyph glyph-name="exclamdown" unicode="&#xa1;" horiz-adv-x="310" 
d="M251 289h-192v210h192v-210zM260 -191h-210l20 429h170z" />
    <glyph glyph-name="cent" unicode="&#xa2;" horiz-adv-x="586" 
d="M358 308l188 -8q-3 -92 -65.5 -155.5t-181.5 -63.5v-81h-18v81q-100 6 -168 74.5t-68 185.5t68 185.5t168 74.5v89h18v-89q110 0 173 -64.5t73 -142.5l-190 -17q-16 37 -56 37v-146q50 0 59 40zM227 341q0 -25 13.5 -45.5t40.5 -25.5v142q-27 -5 -40.5 -25.5t-13.5 -45.5
z" />
    <glyph glyph-name="sterling" unicode="&#xa3;" horiz-adv-x="715" 
d="M217 163l14 -28q87 57 177 57h258v-192h-336q-108 0 -162 -24l-113 185q51 32 69 64t18 75v41h-92l11 18h81v46q0 142 71 217.5t203 77.5q69 1 121 -21.5t80 -61.5t42 -82t16 -92l-216 -19q-5 76 -58 76q-37 0 -51.5 -32t-16.5 -109h146l-11 -18h-136v-58
q0 -16 -5.5 -29.5t-22 -28t-24 -20.5t-34 -23t-29.5 -19z" />
    <glyph glyph-name="yen" unicode="&#xa5;" horiz-adv-x="838" 
d="M733 392l-11 -18h-115l-31 -53h157l-11 -18h-156l-52 -88v-215h-190v215l-52 88h-178l11 18h157l-31 53h-137l11 18h115l-175 298h237l108 -258q8 -19 11 -97l2 -67h30l2 67q2 70 13 96l108 259h237l-175 -298h115z" />
    <glyph glyph-name="section" unicode="&#xa7;" horiz-adv-x="727" 
d="M46 -7l202 21q5 -47 32 -73t88 -26q58 0 89 21.5t31 57.5q0 29 -12.5 45.5t-59.5 28.5t-134 12q-57 0 -96.5 4.5t-73.5 16.5t-50.5 35t-16.5 58q0 66 77.5 89.5t249.5 23.5v30q-323 0 -323 163q0 89 82.5 144.5t226.5 55.5q83 0 145 -20.5t98 -57t55 -77.5t23 -89
l-217 -19q-15 68 -112 68q-51 0 -81 -18.5t-30 -49.5q0 -43 48.5 -56t174.5 -13q120 0 170 -26t50 -77q0 -70 -75 -95t-235 -25v-30q152 0 229 -38t77 -132q0 -93 -81.5 -159t-219.5 -66q-85 0 -148.5 22t-101.5 61t-57.5 86t-23.5 104zM492 226q0 49 -120 49t-120 -49
t120 -49t120 49z" />
    <glyph glyph-name="copyright" unicode="&#xa9;" horiz-adv-x="770" 
d="M385 -10q-143 0 -244 101t-101 244t101 244t244 101t244 -101t101 -244t-101 -244t-244 -101zM385 10q136 0 230.5 94.5t94.5 230.5t-94.5 230.5t-230.5 94.5t-230.5 -94.5t-94.5 -230.5t94.5 -230.5t230.5 -94.5zM384 121q-88 0 -149 56t-61 157q0 100 62 156.5
t149 56.5q89 0 142 -49t59 -105l-130 -11q-5 17 -25 31t-49 14q-38 0 -64.5 -24.5t-26.5 -68.5t26.5 -68.5t65.5 -24.5q31 0 51.5 17t24.5 36l128 -5q-4 -63 -57.5 -115.5t-145.5 -52.5z" />
    <glyph glyph-name="ordfeminine" unicode="&#xaa;" horiz-adv-x="420" 
d="M373 540q0 -155 7 -197l-124 -1q-9 24 -9 56q0 26 24 93h-21q-27 -69 -59 -112t-80 -43q-35 0 -53 21.5t-18 56.5q0 67 53.5 96.5t137.5 29.5h9v5q0 24 -30 24q-28 0 -28 -17l-133 14q0 52 40 93t121 41q80 0 121.5 -42.5t41.5 -117.5zM240 515v14q-37 0 -52 -7.5
t-15 -25.5q0 -26 29 -26q38 0 38 45z" />
    <glyph glyph-name="guillemotleft" unicode="&#xab;" horiz-adv-x="608" 
d="M271 349l-213 -44v-30l213 -44v-186l-231 166v158l231 166v-186zM568 349l-213 -44v-30l213 -44v-186l-231 166v158l231 166v-186z" />
    <glyph glyph-name="registered" unicode="&#xae;" horiz-adv-x="770" 
d="M385 -10q-143 0 -244 101t-101 244t101 244t244 101t244 -101t101 -244t-101 -244t-244 -101zM385 10q136 0 230.5 94.5t94.5 230.5t-94.5 230.5t-230.5 94.5t-230.5 -94.5t-94.5 -230.5t94.5 -230.5t230.5 -94.5zM341 139h-114v414h192q90 0 125 -35t35 -84
q0 -46 -33.5 -72.5t-97.5 -26.5v-18q64 0 84 -10t28 -46l28 -122h-117l-36 160q-3 14 -13 17.5t-31 3.5h-50v-181zM341 438v-107h56q68 0 68 53q0 54 -68 54h-56z" />
    <glyph glyph-name="degree" unicode="&#xb0;" horiz-adv-x="330" 
d="M290 578q0 -52 -34.5 -87t-90.5 -35t-90.5 35t-34.5 87t34.5 87t90.5 35t90.5 -35t34.5 -87zM199 578q0 14 -9 23t-25 9t-25 -9t-9 -23t9 -23t25 -9t25 9t9 23z" />
    <glyph glyph-name="uni00B2" unicode="&#xb2;" horiz-adv-x="426" 
d="M391 558q0 -42 -28.5 -77t-68 -55.5t-82.5 -35t-69.5 -20t-31.5 -5.5v-19l174 20h100v-125h-338v125q35 0 84 19.5t89.5 57t40.5 78.5q0 48 -41 48q-39 0 -44 -44l-141 12q6 67 51 113t133 46q85 0 128.5 -43t43.5 -95z" />
    <glyph glyph-name="uni00B3" unicode="&#xb3;" horiz-adv-x="437" 
d="M221 465h-101v12h99q46 0 46 44q0 19 -10.5 33.5t-33.5 14.5q-39 0 -44 -44l-140 12q6 67 51 113t133 46q48 0 82.5 -12.5t52 -33t25 -39.5t7.5 -38q0 -91 -119 -91v-20q133 0 133 -94q0 -56 -44 -94.5t-132 -38.5q-53 0 -92 15.5t-59 41.5t-29.5 53.5t-10.5 57.5l138 6
q5 -44 53 -44q25 0 38.5 14.5t13.5 38.5q0 47 -57 47z" />
    <glyph glyph-name="periodcentered" unicode="&#xb7;" 
d="M50 290v210h192v-210h-192z" />
    <glyph glyph-name="uni00B9" unicode="&#xb9;" horiz-adv-x="223" 
d="M169 599l-134 -34v125h153v-449h-123v256q0 11 1.5 20t7 16t9.5 11t16 9.5t18 7.5t24.5 8.5t27.5 9.5v20z" />
    <glyph glyph-name="ordmasculine" unicode="&#xba;" horiz-adv-x="424" 
d="M217 336q-74 0 -125.5 48t-51.5 134t51.5 134t125.5 48t125.5 -48t51.5 -134t-51.5 -134t-125.5 -48zM217 569q-25 0 -37.5 -15.5t-12.5 -35.5t12.5 -35.5t37.5 -15.5q24 0 36.5 15.5t12.5 35.5t-12.5 35.5t-36.5 15.5z" />
    <glyph glyph-name="guillemotright" unicode="&#xbb;" horiz-adv-x="598" 
d="M253 275v30l-213 44v186l231 -166v-158l-231 -166v186zM540 275v30l-213 44v186l231 -166v-158l-231 -166v186z" />
    <glyph glyph-name="questiondown" unicode="&#xbf;" horiz-adv-x="625" 
d="M456 500v-210h-192v210h192zM35 -5q0 50 24 87t57.5 56t67.5 34t58 30.5t24 35.5h190q0 -44 -22 -76.5t-53 -49.5t-62 -29t-53 -24t-22 -26t12.5 -26t43.5 -12q63 0 73 68l217 -19q-4 -48 -22 -89.5t-51 -77t-88.5 -56.5t-127.5 -21q-129 0 -197.5 59.5t-68.5 135.5z" />
    <glyph glyph-name="Agrave" unicode="&#xc0;" horiz-adv-x="838" 
d="M414 907l59 -183h-112l-117 183h170zM793 0h-232l-57 197h-170l-57 -197h-232l273 690h202zM434 642h-30q0 -179 -15 -238l-50 -189h160l-50 189q-15 59 -15 238z" />
    <glyph glyph-name="Aacute" unicode="&#xc1;" horiz-adv-x="838" 
d="M421 917h170l-117 -183h-112zM793 0h-232l-57 197h-170l-57 -197h-232l273 690h202zM434 642h-30q0 -179 -15 -238l-50 -189h160l-50 189q-15 59 -15 238z" />
    <glyph glyph-name="acircumflex" unicode="&#xc2;" horiz-adv-x="571" 
d="M315 704h-30l-32 -165h-161l122 183h171l122 -183h-160zM521 281q0 -221 10 -281l-177 -1q-13 36 -13 80q0 40 35 133h-30q-18 -47 -34.5 -80t-41 -68.5t-56 -54.5t-67.5 -19q-49 0 -75.5 31t-26.5 81q0 65 40.5 106.5t98.5 57t135 15.5h12v8q0 34 -42 34q-41 0 -41 -25
l-190 20q0 74 57.5 133t173.5 59q114 0 173 -61t59 -168zM331 246v19q-52 0 -74 -10.5t-22 -36.5q0 -36 42 -36q54 0 54 64z" />
    <glyph glyph-name="acircumflex" unicode="&#xe2;" horiz-adv-x="571" 
d="M315 704h-30l-32 -165h-161l122 183h171l122 -183h-160zM521 281q0 -221 10 -281l-177 -1q-13 36 -13 80q0 40 35 133h-30q-18 -47 -34.5 -80t-41 -68.5t-56 -54.5t-67.5 -19q-49 0 -75.5 31t-26.5 81q0 65 40.5 106.5t98.5 57t135 15.5h12v8q0 34 -42 34q-41 0 -41 -25
l-190 20q0 74 57.5 133t173.5 59q114 0 173 -61t59 -168zM331 246v19q-52 0 -74 -10.5t-22 -36.5q0 -36 42 -36q54 0 54 64z" />
    <glyph glyph-name="acircumflex" unicode="&#xe2;" horiz-adv-x="571" 
d="M315 704h-30l-32 -165h-161l122 183h171l122 -183h-160zM521 281q0 -221 10 -281l-177 -1q-13 36 -13 80q0 40 35 133h-30q-18 -47 -34.5 -80t-41 -68.5t-56 -54.5t-67.5 -19q-49 0 -75.5 31t-26.5 81q0 65 40.5 106.5t98.5 57t135 15.5h12v8q0 34 -42 34q-41 0 -41 -25
l-190 20q0 74 57.5 133t173.5 59q114 0 173 -61t59 -168zM331 246v19q-52 0 -74 -10.5t-22 -36.5q0 -36 42 -36q54 0 54 64z" />
    <glyph glyph-name="Atilde" unicode="&#xc3;" horiz-adv-x="838" 
d="M363 761q-24 0 -24 -30l-113 16q0 119 95 119q28 0 73 -17t57 -17q23 0 23 30l114 -16q0 -53 -25.5 -86t-76.5 -33q-28 0 -69.5 17t-53.5 17zM793 0h-232l-57 197h-170l-57 -197h-232l273 690h202zM434 642h-30q0 -179 -15 -238l-50 -189h160l-50 189q-15 59 -15 238z
" />
    <glyph glyph-name="Adieresis" unicode="&#xc4;" horiz-adv-x="838" 
d="M264 877h140v-153h-140v153zM434 877h140v-153h-140v153zM793 0h-232l-57 197h-170l-57 -197h-232l273 690h202zM434 642h-30q0 -179 -15 -238l-50 -189h160l-50 189q-15 59 -15 238z" />
    <glyph glyph-name="Aring" unicode="&#xc5;" horiz-adv-x="838" 
d="M416 716q-45 0 -73 27t-28 70t28 70t73 27t73 -27t28 -70t-28 -70t-73 -27zM416 843q-14 0 -22.5 -8.5t-8.5 -21.5t8.5 -21.5t22.5 -8.5t22.5 8.5t8.5 21.5t-8.5 21.5t-22.5 8.5zM793 0h-232l-57 197h-170l-57 -197h-232l273 690h202zM434 642h-30q0 -179 -15 -238
l-50 -189h160l-50 189q-15 59 -15 238z" />
    <glyph glyph-name="AE" unicode="&#xc6;" horiz-adv-x="1001" 
d="M961 690v-205h-327v-122h317v-18h-317v-140h327v-205h-527v197h-100l-57 -197h-232l273 690h643zM389 404l-50 -189h95v427h-30q0 -179 -15 -238z" />
    <glyph glyph-name="Ccedilla" unicode="&#xc7;" horiz-adv-x="768" 
d="M514 279l214 -9q-3 -47 -25 -94t-61 -89t-103.5 -69t-143.5 -28l-8 -15h51q156 0 156 -89q0 -39 -35.5 -66t-117.5 -27q-72 0 -148 14v133h62q33 0 41.5 1.5t8.5 7.5q0 8 -50 8l18 33q-142 6 -237.5 99t-95.5 256q0 85 29.5 154t79 112t112 66t131.5 23q77 0 141.5 -25
t103.5 -64.5t62 -82.5t27 -84l-215 -19q-11 29 -43.5 52t-81.5 23q-63 0 -107 -41t-44 -114t44 -114t109 -41q52 0 85.5 28t40.5 61z" />
    <glyph glyph-name="Egrave" unicode="&#xc8;" horiz-adv-x="617" 
d="M317 907l59 -183h-112l-117 183h170zM577 690v-195h-327v-132h317v-18h-317v-150h327v-195h-527v690h527z" />
    <glyph glyph-name="Eacute" unicode="&#xc9;" horiz-adv-x="617" 
d="M319 907h170l-117 -183h-112zM577 690v-195h-327v-132h317v-18h-317v-150h327v-195h-527v690h527z" />
    <glyph glyph-name="Ecircumflex" unicode="&#xca;" horiz-adv-x="617" 
d="M330 889h-30l-32 -165h-161l122 183h171l122 -183h-160zM577 690v-195h-327v-132h317v-18h-317v-150h327v-195h-527v690h527z" />
    <glyph glyph-name="Edieresis" unicode="&#xcb;" horiz-adv-x="617" 
d="M162 877h140v-153h-140v153zM332 877h140v-153h-140v153zM577 690v-195h-327v-132h317v-18h-317v-150h327v-195h-527v690h527z" />
    <glyph glyph-name="Igrave" unicode="&#xcc;" 
d="M87 724l-117 183h170l59 -183h-112zM242 690v-690h-192v690h192z" />
    <glyph glyph-name="Iacute" unicode="&#xcd;" 
d="M139 907h170l-117 -183h-112zM242 690v-690h-192v690h192z" />
    <glyph glyph-name="Icircumflex" unicode="&#xce;" 
d="M59 907h171l122 -183h-160l-32 165h-30l-32 -165h-161zM242 690v-690h-192v690h192z" />
    <glyph glyph-name="Idieresis" unicode="&#xcf;" 
d="M-10 724v153h140v-153h-140zM160 724v153h140v-153h-140zM242 690v-690h-192v690h192z" />
    <glyph glyph-name="Ntilde" unicode="&#xd1;" horiz-adv-x="690" 
d="M433 727q-28 0 -69.5 17t-53.5 17q-24 0 -24 -30l-113 16q0 119 95 119q28 0 73 -17t57 -17q23 0 23 30l114 -16q0 -53 -25.5 -86t-76.5 -33zM450 0l-180 542h-30v-542h-190v690h190l180 -542h30v542h190v-690h-190z" />
    <glyph glyph-name="Ograve" unicode="&#xd2;" horiz-adv-x="778" 
d="M337 724l-117 183h170l59 -183h-112zM738 345q0 -85 -29.5 -154t-79.5 -112t-111.5 -66t-128.5 -23t-128.5 23t-111.5 66t-79.5 112t-29.5 154t29.5 154t79.5 112t111.5 66t128.5 23t128.5 -23t111.5 -66t79.5 -112t29.5 -154zM543 345q0 73 -44.5 114t-109.5 41
t-109.5 -41t-44.5 -114t44.5 -114t109.5 -41t109.5 41t44.5 114z" />
    <glyph glyph-name="Oacute" unicode="&#xd3;" horiz-adv-x="778" 
d="M382 907h170l-117 -183h-112zM738 345q0 -85 -29.5 -154t-79.5 -112t-111.5 -66t-128.5 -23t-128.5 23t-111.5 66t-79.5 112t-29.5 154t29.5 154t79.5 112t111.5 66t128.5 23t128.5 -23t111.5 -66t79.5 -112t29.5 -154zM543 345q0 73 -44.5 114t-109.5 41t-109.5 -41
t-44.5 -114t44.5 -114t109.5 -41t109.5 41t44.5 114z" />
    <glyph glyph-name="Ocircumflex" unicode="&#xd4;" horiz-adv-x="778" 
d="M291 907h171l122 -183h-160l-32 165h-30l-32 -165h-161zM738 345q0 -85 -29.5 -154t-79.5 -112t-111.5 -66t-128.5 -23t-128.5 23t-111.5 66t-79.5 112t-29.5 154t29.5 154t79.5 112t111.5 66t128.5 23t128.5 -23t111.5 -66t79.5 -112t29.5 -154zM543 345q0 73 -44.5 114
t-109.5 41t-109.5 -41t-44.5 -114t44.5 -114t109.5 -41t109.5 41t44.5 114z" />
    <glyph glyph-name="Otilde" unicode="&#xd5;" horiz-adv-x="778" 
d="M476 727q-28 0 -69.5 17t-53.5 17q-24 0 -24 -30l-113 16q0 119 95 119q28 0 73 -17t57 -17q23 0 23 30l114 -16q0 -53 -25.5 -86t-76.5 -33zM738 345q0 -85 -29.5 -154t-79.5 -112t-111.5 -66t-128.5 -23t-128.5 23t-111.5 66t-79.5 112t-29.5 154t29.5 154t79.5 112
t111.5 66t128.5 23t128.5 -23t111.5 -66t79.5 -112t29.5 -154zM543 345q0 73 -44.5 114t-109.5 41t-109.5 -41t-44.5 -114t44.5 -114t109.5 -41t109.5 41t44.5 114z" />
    <glyph glyph-name="Odieresis" unicode="&#xd6;" horiz-adv-x="778" 
d="M235 724v153h140v-153h-140zM405 724v153h140v-153h-140zM738 345q0 -85 -29.5 -154t-79.5 -112t-111.5 -66t-128.5 -23t-128.5 23t-111.5 66t-79.5 112t-29.5 154t29.5 154t79.5 112t111.5 66t128.5 23t128.5 -23t111.5 -66t79.5 -112t29.5 -154zM543 345
q0 73 -44.5 114t-109.5 41t-109.5 -41t-44.5 -114t44.5 -114t109.5 -41t109.5 41t44.5 114z" />
    <glyph glyph-name="multiply" unicode="&#xd7;" horiz-adv-x="635" 
d="M460 621l135 -134l-143 -143l143 -143l-135 -134l-142 143l-143 -143l-135 134l143 143l-143 143l135 134l143 -142z" />
    <glyph glyph-name="Oslash" unicode="&#xd8;" horiz-adv-x="778" 
d="M645 715l-51 -77q144 -98 144 -293q0 -85 -29.5 -154t-79.5 -112t-111.5 -66t-128.5 -23q-103 0 -189 51l-44 -66h-22l50 76q-67 46 -105.5 120.5t-38.5 173.5q0 85 29.5 154t79.5 112t111.5 66t128.5 23q105 0 190 -52l44 67h22zM235 345q0 -84 60 -127l173 263
q-34 19 -79 19q-65 0 -109.5 -41t-44.5 -114zM389 190q65 0 109.5 41t44.5 114q0 85 -59 126l-174 -262q35 -19 79 -19z" />
    <glyph glyph-name="Ugrave" unicode="&#xd9;" horiz-adv-x="717" 
d="M310 724l-117 183h170l59 -183h-112zM50 288v402h190v-360q0 -73 26 -109t92 -36t92.5 36t26.5 109v360h190v-402q0 -294 -309 -298q-308 4 -308 298z" />
    <glyph glyph-name="Uacute" unicode="&#xda;" horiz-adv-x="717" 
d="M370 907h170l-117 -183h-112zM50 288v402h190v-360q0 -73 26 -109t92 -36t92.5 36t26.5 109v360h190v-402q0 -294 -309 -298q-308 4 -308 298z" />
    <glyph glyph-name="Ucircumflex" unicode="&#xdb;" horiz-adv-x="717" 
d="M268 907h171l122 -183h-160l-32 165h-30l-32 -165h-161zM50 288v402h190v-360q0 -73 26 -109t92 -36t92.5 36t26.5 109v360h190v-402q0 -294 -309 -298q-308 4 -308 298z" />
    <glyph glyph-name="Udieresis" unicode="&#xdc;" horiz-adv-x="717" 
d="M202 724v153h140v-153h-140zM372 724v153h140v-153h-140zM50 288v402h190v-360q0 -73 26 -109t92 -36t92.5 36t26.5 109v360h190v-402q0 -294 -309 -298q-308 4 -308 298z" />
    <glyph glyph-name="Yacute" unicode="&#xdd;" horiz-adv-x="838" 
d="M425 907h170l-117 -183h-112zM793 690l-279 -475v-215h-190v215l-279 475h237l108 -258q8 -19 11 -97l2 -67h30l2 67q2 70 13 96l108 259h237z" />
    <glyph glyph-name="germandbls" unicode="&#xdf;" horiz-adv-x="623" 
d="M282 0l10 195h21q40 0 60 23t20 57q0 70 -80 70h-31v18h20q38 0 52 14.5t14 46.5q0 71 -50 71q-68 0 -68 -112v-383h-200v345q0 78 15.5 141.5t47 112t85 75t125.5 26.5q67 0 116 -19t73 -48.5t35 -57.5t11 -55q0 -51 -29.5 -86.5t-68.5 -49.5t-81 -14v-30
q204 0 204 -163q0 -35 -10.5 -66t-33 -59.5t-64 -45t-97.5 -16.5q-34 0 -96 10z" />
    <glyph glyph-name="agrave" unicode="&#xe0;" horiz-adv-x="571" 
d="M309 722l59 -183h-112l-117 183h170zM521 281q0 -221 10 -281l-177 -1q-13 36 -13 80q0 40 35 133h-30q-18 -47 -34.5 -80t-41 -68.5t-56 -54.5t-67.5 -19q-49 0 -75.5 31t-26.5 81q0 65 40.5 106.5t98.5 57t135 15.5h12v8q0 34 -42 34q-41 0 -41 -25l-190 20
q0 74 57.5 133t173.5 59q114 0 173 -61t59 -168zM331 246v19q-52 0 -74 -10.5t-22 -36.5q0 -36 42 -36q54 0 54 64z" />
    <glyph glyph-name="aacute" unicode="&#xe1;" horiz-adv-x="571" 
d="M303 722h170l-117 -183h-112zM521 281q0 -221 10 -281l-177 -1q-13 36 -13 80q0 40 35 133h-30q-18 -47 -34.5 -80t-41 -68.5t-56 -54.5t-67.5 -19q-49 0 -75.5 31t-26.5 81q0 65 40.5 106.5t98.5 57t135 15.5h12v8q0 34 -42 34q-41 0 -41 -25l-190 20q0 74 57.5 133
t173.5 59q114 0 173 -61t59 -168zM331 246v19q-52 0 -74 -10.5t-22 -36.5q0 -36 42 -36q54 0 54 64z" />
    <glyph glyph-name="atilde" unicode="&#xe3;" horiz-adv-x="571" 
d="M250 563q-24 0 -24 -30l-113 16q0 119 95 119q28 0 73 -17t57 -17q23 0 23 30l114 -16q0 -53 -25.5 -86t-76.5 -33q-28 0 -69.5 17t-53.5 17zM521 281q0 -221 10 -281l-177 -1q-13 36 -13 80q0 40 35 133h-30q-18 -47 -34.5 -80t-41 -68.5t-56 -54.5t-67.5 -19
q-49 0 -75.5 31t-26.5 81q0 65 40.5 106.5t98.5 57t135 15.5h12v8q0 34 -42 34q-41 0 -41 -25l-190 20q0 74 57.5 133t173.5 59q114 0 173 -61t59 -168zM331 246v19q-52 0 -74 -10.5t-22 -36.5q0 -36 42 -36q54 0 54 64z" />
    <glyph glyph-name="adieresis" unicode="&#xe4;" horiz-adv-x="571" 
d="M156 692h140v-153h-140v153zM326 692h140v-153h-140v153zM521 281q0 -221 10 -281l-177 -1q-13 36 -13 80q0 40 35 133h-30q-18 -47 -34.5 -80t-41 -68.5t-56 -54.5t-67.5 -19q-49 0 -75.5 31t-26.5 81q0 65 40.5 106.5t98.5 57t135 15.5h12v8q0 34 -42 34q-41 0 -41 -25
l-190 20q0 74 57.5 133t173.5 59q114 0 173 -61t59 -168zM331 246v19q-52 0 -74 -10.5t-22 -36.5q0 -36 42 -36q54 0 54 64z" />
    <glyph glyph-name="aring" unicode="&#xe5;" horiz-adv-x="571" 
d="M300 534q-45 0 -73 27t-28 70t28 70t73 27t73 -27t28 -70t-28 -70t-73 -27zM300 661q-14 0 -22.5 -8.5t-8.5 -21.5t8.5 -21.5t22.5 -8.5t22.5 8.5t8.5 21.5t-8.5 21.5t-22.5 8.5zM521 281q0 -221 10 -281l-177 -1q-13 36 -13 80q0 40 35 133h-30q-18 -47 -34.5 -80
t-41 -68.5t-56 -54.5t-67.5 -19q-49 0 -75.5 31t-26.5 81q0 65 40.5 106.5t98.5 57t135 15.5h12v8q0 34 -42 34q-41 0 -41 -25l-190 20q0 74 57.5 133t173.5 59q114 0 173 -61t59 -168zM331 246v19q-52 0 -74 -10.5t-22 -36.5q0 -36 42 -36q54 0 54 64z" />
    <glyph glyph-name="ae" unicode="&#xe6;" horiz-adv-x="880" 
d="M840 269v-26h-319q3 -27 20.5 -46.5t50.5 -19.5q24 0 40 11.5t20 28.5l188 -8q-3 -92 -65.5 -155.5t-182.5 -63.5q-56 0 -112.5 2t-90 4.5t-35.5 2.5q-13 36 -13 80q0 40 35 133h-30q-18 -47 -34.5 -80t-41 -68.5t-56 -54.5t-67.5 -19q-49 0 -75.5 31t-26.5 81
q0 65 40.5 106.5t98.5 57t135 15.5h12v8q0 34 -42 34q-41 0 -41 -25l-190 20q0 74 57.5 133t173.5 59q94 0 154 -44q65 44 149 44q62 0 112 -23t78.5 -60t43 -77.5t14.5 -80.5zM521 259h133q0 24 -16.5 44t-45.5 20q-32 0 -50 -19t-21 -45zM331 246v19q-52 0 -74 -10.5
t-22 -36.5q0 -36 42 -36q54 0 54 64z" />
    <glyph glyph-name="ccedilla" unicode="&#xe7;" horiz-adv-x="586" 
d="M298 -10q-13 0 -19 1l-8 -16h51q156 0 156 -89q0 -39 -35.5 -66t-117.5 -27q-72 0 -148 14v133h62q33 0 41.5 1.5t8.5 7.5q0 8 -50 8l19 36q-92 13 -152.5 80t-60.5 177q0 122 74 191t179 69q58 0 105 -19.5t75.5 -51.5t45.5 -66.5t21 -69.5l-190 -17q-16 37 -57 37
q-35 0 -53 -22t-18 -51t18 -51t53 -22q51 0 60 40l188 -8q-3 -92 -65.5 -155.5t-182.5 -63.5z" />
    <glyph glyph-name="egrave" unicode="&#xe8;" horiz-adv-x="586" 
d="M307 722l59 -183h-112l-117 183h170zM546 269v-26h-319q3 -27 20.5 -46.5t50.5 -19.5q24 0 40 11.5t20 28.5l188 -8q-3 -92 -65.5 -155.5t-182.5 -63.5q-105 0 -179 69t-74 191t74 191t179 69q62 0 112 -23t78.5 -60t43 -77.5t14.5 -80.5zM227 259h133q0 24 -16.5 44
t-45.5 20q-32 0 -50 -19t-21 -45z" />
    <glyph glyph-name="eacute" unicode="&#xe9;" horiz-adv-x="586" 
d="M286 722h170l-117 -183h-112zM546 269v-26h-319q3 -27 20.5 -46.5t50.5 -19.5q24 0 40 11.5t20 28.5l188 -8q-3 -92 -65.5 -155.5t-182.5 -63.5q-105 0 -179 69t-74 191t74 191t179 69q62 0 112 -23t78.5 -60t43 -77.5t14.5 -80.5zM227 259h133q0 24 -16.5 44t-45.5 20
q-32 0 -50 -19t-21 -45z" />
    <glyph glyph-name="ecircumflex" unicode="&#xea;" horiz-adv-x="586" 
d="M316 704h-30l-32 -165h-161l122 183h171l122 -183h-160zM546 269v-26h-319q3 -27 20.5 -46.5t50.5 -19.5q24 0 40 11.5t20 28.5l188 -8q-3 -92 -65.5 -155.5t-182.5 -63.5q-105 0 -179 69t-74 191t74 191t179 69q62 0 112 -23t78.5 -60t43 -77.5t14.5 -80.5zM227 259h133
q0 24 -16.5 44t-45.5 20q-32 0 -50 -19t-21 -45z" />
    <glyph glyph-name="edieresis" unicode="&#xeb;" horiz-adv-x="586" 
d="M143 691h140v-153h-140v153zM313 691h140v-153h-140v153zM546 269v-26h-319q3 -27 20.5 -46.5t50.5 -19.5q24 0 40 11.5t20 28.5l188 -8q-3 -92 -65.5 -155.5t-182.5 -63.5q-105 0 -179 69t-74 191t74 191t179 69q62 0 112 -23t78.5 -60t43 -77.5t14.5 -80.5zM227 259
h133q0 24 -16.5 44t-45.5 20q-32 0 -50 -19t-21 -45z" />
    <glyph glyph-name="igrave" unicode="&#xec;" horiz-adv-x="290" 
d="M95 539l-117 183h170l59 -183h-112zM50 0v500h190v-500h-190z" />
    <glyph glyph-name="iacute" unicode="&#xed;" horiz-adv-x="290" 
d="M150 721h170l-117 -183h-112zM50 0v500h190v-500h-190z" />
    <glyph glyph-name="icircumflex" unicode="&#xee;" horiz-adv-x="290" 
d="M58 722h171l122 -183h-160l-32 165h-30l-32 -165h-161zM50 0v500h190v-500h-190z" />
    <glyph glyph-name="idieresis" unicode="&#xef;" horiz-adv-x="290" 
d="M-10 538v153h140v-153h-140zM160 538v153h140v-153h-140zM50 0v500h190v-500h-190z" />
    <glyph glyph-name="ntilde" unicode="&#xf1;" horiz-adv-x="574" 
d="M358 529q-28 0 -69.5 17t-53.5 17q-24 0 -24 -30l-113 16q0 119 95 119q28 0 73 -17t57 -17q23 0 23 30l114 -16q0 -53 -25.5 -86t-76.5 -33zM40 500h170q6 -28 6 -79q0 -77 -33 -172h30q5 21 16 71t17.5 74t17 56t22.5 46t26 14q101 0 156.5 -49t55.5 -130v-331h-190
v259q0 59 -48 59q-22 0 -34 -17.5t-12 -41.5v-259h-190v309q0 99 -10 191z" />
    <glyph glyph-name="ograve" unicode="&#xf2;" horiz-adv-x="596" 
d="M247 539l-117 183h170l59 -183h-112zM298 -10q-105 0 -179 69t-74 191t74 191t179 69t179 -69t74 -191t-74 -191t-179 -69zM298 323q-35 0 -53 -22t-18 -51t18 -51t53 -22t53 22t18 51t-18 51t-53 22z" />
    <glyph glyph-name="oacute" unicode="&#xf3;" horiz-adv-x="596" 
d="M302 721h170l-117 -183h-112zM298 -10q-105 0 -179 69t-74 191t74 191t179 69t179 -69t74 -191t-74 -191t-179 -69zM298 323q-35 0 -53 -22t-18 -51t18 -51t53 -22t53 22t18 51t-18 51t-53 22z" />
    <glyph glyph-name="ocircumflex" unicode="&#xf4;" horiz-adv-x="596" 
d="M217 722h171l122 -183h-160l-32 165h-30l-32 -165h-161zM298 -10q-105 0 -179 69t-74 191t74 191t179 69t179 -69t74 -191t-74 -191t-179 -69zM298 323q-35 0 -53 -22t-18 -51t18 -51t53 -22t53 22t18 51t-18 51t-53 22z" />
    <glyph glyph-name="otilde" unicode="&#xf5;" horiz-adv-x="596" 
d="M370 536q-28 0 -69.5 17t-53.5 17q-24 0 -24 -30l-113 16q0 119 95 119q28 0 73 -17t57 -17q23 0 23 30l114 -16q0 -53 -25.5 -86t-76.5 -33zM298 -10q-105 0 -179 69t-74 191t74 191t179 69t179 -69t74 -191t-74 -191t-179 -69zM298 323q-35 0 -53 -22t-18 -51t18 -51
t53 -22t53 22t18 51t-18 51t-53 22z" />
    <glyph glyph-name="odieresis" unicode="&#xf6;" horiz-adv-x="596" 
d="M146 538v153h140v-153h-140zM316 538v153h140v-153h-140zM298 -10q-105 0 -179 69t-74 191t74 191t179 69t179 -69t74 -191t-74 -191t-179 -69zM298 323q-35 0 -53 -22t-18 -51t18 -51t53 -22t53 22t18 51t-18 51t-53 22z" />
    <glyph glyph-name="oslash" unicode="&#xf8;" horiz-adv-x="596" 
d="M479 525l-37 -56q109 -70 109 -219q0 -122 -74 -191t-179 -69q-81 0 -145 41l-37 -56h-22l44 67q-93 71 -93 208q0 122 74 191t179 69q70 0 128 -32l31 47h22zM227 250q0 -29 16 -49l79 119q-10 3 -24 3q-35 0 -53 -22t-18 -51zM298 177q35 0 53 22t18 51q0 42 -31 62
l-81 -123q15 -12 41 -12z" />
    <glyph glyph-name="ugrave" unicode="&#xf9;" horiz-adv-x="565" 
d="M219 538l-117 183h170l59 -183h-112zM524 0h-175q-15 41 -15 73q0 18 4 37.5t9 35t23 66.5h-30q-17 -43 -30.5 -73t-35 -69t-45.5 -59.5t-49 -20.5q-59 0 -94.5 45.5t-35.5 123.5v341h190v-259q0 -59 42 -59t42 59v259h190v-309q0 -99 10 -191z" />
    <glyph glyph-name="uacute" unicode="&#xfa;" horiz-adv-x="565" 
d="M284 722h170l-117 -183h-112zM524 0h-175q-15 41 -15 73q0 18 4 37.5t9 35t23 66.5h-30q-17 -43 -30.5 -73t-35 -69t-45.5 -59.5t-49 -20.5q-59 0 -94.5 45.5t-35.5 123.5v341h190v-259q0 -59 42 -59t42 59v259h190v-309q0 -99 10 -191z" />
    <glyph glyph-name="ucircumflex" unicode="&#xfb;" horiz-adv-x="565" 
d="M198 721h171l122 -183h-160l-32 165h-30l-32 -165h-161zM524 0h-175q-15 41 -15 73q0 18 4 37.5t9 35t23 66.5h-30q-17 -43 -30.5 -73t-35 -69t-45.5 -59.5t-49 -20.5q-59 0 -94.5 45.5t-35.5 123.5v341h190v-259q0 -59 42 -59t42 59v259h190v-309q0 -99 10 -191z" />
    <glyph glyph-name="udieresis" unicode="&#xfc;" horiz-adv-x="565" 
d="M125 539v153h140v-153h-140zM295 539v153h140v-153h-140zM524 0h-175q-15 41 -15 73q0 18 4 37.5t9 35t23 66.5h-30q-17 -43 -30.5 -73t-35 -69t-45.5 -59.5t-49 -20.5q-59 0 -94.5 45.5t-35.5 123.5v341h190v-259q0 -59 42 -59t42 59v259h190v-309q0 -99 10 -191z" />
    <glyph glyph-name="yacute" unicode="&#xfd;" horiz-adv-x="632" 
d="M314 721h170l-117 -183h-112zM587 500l-190 -479q-26 -65 -38.5 -95t-31 -67t-31.5 -50.5t-34.5 -27.5t-44.5 -17.5t-57 -3.5q-39 0 -102 9v190q90 -4 102 -4q30 0 50 9.5t26 18.5t6 16q0 5 -56 147l-141 354h229l25 -307q2 -24 2 -148h30q0 124 2 148l25 307h229z" />
    <glyph glyph-name="ydieresis" unicode="&#xff;" horiz-adv-x="632" 
d="M155 538v153h140v-153h-140zM325 538v153h140v-153h-140zM587 500l-190 -479q-26 -65 -38.5 -95t-31 -67t-31.5 -50.5t-34.5 -27.5t-44.5 -17.5t-57 -3.5q-39 0 -102 9v190q90 -4 102 -4q30 0 50 9.5t26 18.5t6 16q0 5 -56 147l-141 354h229l25 -307q2 -24 2 -148h30
q0 124 2 148l25 307h229z" />
    <glyph glyph-name="dotlessi" unicode="&#x131;" horiz-adv-x="290" 
d="M50 0v500h190v-500h-190z" />
    <glyph glyph-name="OE" unicode="&#x152;" horiz-adv-x="1110" 
d="M1070 690v-205h-327v-122h317v-18h-317v-140h327v-205h-594q-41 -10 -87 -10q-67 0 -128.5 23t-111.5 66t-79.5 112t-29.5 154t29.5 154t79.5 112t111.5 66t128.5 23q46 0 87 -10h594zM235 345q0 -73 44.5 -114t109.5 -41t109.5 41t44.5 114t-44.5 114t-109.5 41
t-109.5 -41t-44.5 -114z" />
    <glyph glyph-name="oe" unicode="&#x153;" horiz-adv-x="910" 
d="M870 269v-26h-319q3 -27 20.5 -46.5t50.5 -19.5q24 0 40 11.5t20 28.5l188 -8q-3 -92 -65.5 -155.5t-182.5 -63.5q-94 0 -162 54q-68 -54 -162 -54q-105 0 -179 69t-74 191t74 191t179 69q94 0 162 -54q68 54 162 54q62 0 112 -23t78.5 -60t43 -77.5t14.5 -80.5zM298 177
q35 0 53 22t18 51t-18 51t-53 22t-53 -22t-18 -51t18 -51t53 -22zM551 259h133q0 24 -16.5 44t-45.5 20q-32 0 -50 -19t-21 -45z" />
    <glyph glyph-name="Scaron" unicode="&#x160;" horiz-adv-x="723" 
d="M558 907l-122 -183h-171l-122 183h161l32 -165h30l32 165h160zM368 185q58 0 89 21.5t31 57.5q0 43 -38.5 64.5t-151.5 21.5q-131 0 -192 37t-61 113q0 89 82.5 144.5t226.5 55.5q83 0 145 -20.5t98 -57t55 -77.5t23 -89l-217 -19q-15 68 -112 68q-51 0 -81 -18.5
t-30 -49.5q0 -43 47 -56t166 -13q68 0 114 -10.5t71 -32t35 -47.5t10 -63q0 -93 -81.5 -159t-219.5 -66q-85 0 -148.5 22t-101.5 61t-57.5 86t-23.5 104l202 21q5 -47 32 -73t88 -26z" />
    <glyph glyph-name="scaron" unicode="&#x161;" horiz-adv-x="569" 
d="M474 722l-122 -183h-171l-122 183h161l32 -165h30l32 165h160zM291 176q48 0 48 35q0 36 -96 36q-188 0 -188 109q0 68 62 111t160 43q64 0 112.5 -18t74 -47t38 -61t12.5 -66l-190 -20q0 26 -42 26t-42 -28q0 -20 20.5 -26.5t62.5 -6.5q109 0 155 -24t46 -87
q0 -73 -57 -117.5t-168 -44.5q-127 0 -185 56.5t-58 145.5l190 20q0 -15 11.5 -25.5t33.5 -10.5z" />
    <glyph glyph-name="Ydieresis" unicode="&#x178;" horiz-adv-x="838" 
d="M258 724v153h140v-153h-140zM428 724v153h140v-153h-140zM793 690l-279 -475v-215h-190v215l-279 475h237l108 -258q8 -19 11 -97l2 -67h30l2 67q2 70 13 96l108 259h237z" />
    <glyph glyph-name="zcaron" unicode="&#x17d;" horiz-adv-x="513" 
d="M464 722l-122 -183h-171l-122 183h161l32 -165h30l32 165h160zM314 278v30h-269v192h423v-192l-269 -86v-30h269v-192h-423v192z" />
    <glyph glyph-name="zcaron" unicode="&#x17e;" horiz-adv-x="513" 
d="M464 722l-122 -183h-171l-122 183h161l32 -165h30l32 165h160zM314 278v30h-269v192h423v-192l-269 -86v-30h269v-192h-423v192z" />
    <glyph glyph-name="zcaron" unicode="&#x17e;" horiz-adv-x="513" 
d="M464 722l-122 -183h-171l-122 183h161l32 -165h30l32 165h160zM314 278v30h-269v192h423v-192l-269 -86v-30h269v-192h-423v192z" />
    <glyph glyph-name="gravecomb" unicode="&#x300;" horiz-adv-x="0" 
d="M-152 724l-117 183h170l59 -183h-112z" />
    <glyph glyph-name="acutecomb" unicode="&#x301;" horiz-adv-x="0" 
d="M-210 907h170l-117 -183h-112z" />
    <glyph glyph-name="uni0302" unicode="&#x302;" horiz-adv-x="0" 
d="M-333 907h171l122 -183h-160l-32 165h-30l-32 -165h-161z" />
    <glyph glyph-name="tildecomb" unicode="&#x303;" horiz-adv-x="0" 
d="M-142 727q-28 0 -69.5 17t-53.5 17q-24 0 -24 -30l-113 16q0 119 95 119q28 0 73 -17t57 -17q23 0 23 30l114 -16q0 -53 -25.5 -86t-76.5 -33z" />
    <glyph glyph-name="uni0308" unicode="&#x308;" horiz-adv-x="0" 
d="M-310 724v153h140v-153h-140zM-140 724v153h140v-153h-140z" />
    <glyph glyph-name="uni030A" unicode="&#x30a;" horiz-adv-x="0" 
d="M-242 813q0 43 28 70t73 27t73 -27t28 -70t-28 -70t-73 -27t-73 27t-28 70zM-172 813q0 -13 8.5 -21.5t22.5 -8.5t22.5 8.5t8.5 21.5t-8.5 21.5t-22.5 8.5t-22.5 -8.5t-8.5 -21.5z" />
    <glyph glyph-name="uni030C" unicode="&#x30c;" horiz-adv-x="0" 
d="M-40 907l-122 -183h-171l-122 183h161l32 -165h30l32 165h160z" />
    <glyph glyph-name="endash" unicode="&#x2013;" horiz-adv-x="578" 
d="M0 169v180h578v-180h-578z" />
    <glyph glyph-name="emdash" unicode="&#x2014;" horiz-adv-x="788" 
d="M40 169v180h708v-180h-708z" />
    <glyph glyph-name="quoteleft" unicode="&#x2018;" 
d="M242 700v-18q-52 0 -82 -24t-30 -72h112v-210h-192v192q0 66 56.5 99t135.5 33z" />
    <glyph glyph-name="quoteright" unicode="&#x2019;" 
d="M50 366v18q52 0 82 24t30 72h-112v210h192v-192q0 -66 -56.5 -99t-135.5 -33z" />
    <glyph glyph-name="quotesinglbase" unicode="&#x201a;" 
d="M50 -114v18q52 0 82 24t30 72h-112v210h192v-192q0 -66 -56.5 -99t-135.5 -33z" />
    <glyph glyph-name="quotedblleft" unicode="&#x201c;" horiz-adv-x="584" 
d="M242 700v-18q-52 0 -82 -24t-30 -72h112v-210h-192v192q0 66 56.5 99t135.5 33zM534 700v-18q-52 0 -82 -24t-30 -72h112v-210h-192v192q0 66 56.5 99t135.5 33z" />
    <glyph glyph-name="quotedblright" unicode="&#x201d;" horiz-adv-x="584" 
d="M50 366v18q52 0 82 24t30 72h-112v210h192v-192q0 -66 -56.5 -99t-135.5 -33zM342 366v18q52 0 82 24t30 72h-112v210h192v-192q0 -66 -56.5 -99t-135.5 -33z" />
    <glyph glyph-name="quotedblbase" unicode="&#x201e;" horiz-adv-x="584" 
d="M50 -114v18q52 0 82 24t30 72h-112v210h192v-192q0 -66 -56.5 -99t-135.5 -33zM342 -114v18q52 0 82 24t30 72h-112v210h192v-192q0 -66 -56.5 -99t-135.5 -33z" />
    <glyph glyph-name="bullet" unicode="&#x2022;" horiz-adv-x="362" 
d="M181 255q-59 0 -100 41.5t-41 99.5t41 99.5t100 41.5t100 -41.5t41 -99.5t-41 -99.5t-100 -41.5z" />
    <glyph glyph-name="ellipsis" unicode="&#x2026;" horiz-adv-x="876" 
d="M50 0v210h192v-210h-192zM342 0v210h192v-210h-192zM634 0v210h192v-210h-192z" />
    <glyph glyph-name="perthousand" unicode="&#x2030;" horiz-adv-x="1183" 
d="M396 502q0 -98 -52.5 -148t-125.5 -50t-125.5 50t-52.5 148t52.5 148t125.5 50t125.5 -50t52.5 -148zM154 0l456 690h22l-456 -690h-22zM260 502q0 24 -12 37t-30 13q-19 0 -30.5 -13t-11.5 -37t11.5 -36.5t30.5 -12.5q18 0 30 12.5t12 36.5zM752 198q0 -98 -52.5 -148
t-125.5 -50t-125.5 50t-52.5 148t52.5 148t125.5 50t125.5 -50t52.5 -148zM1143 198q0 -98 -52.5 -148t-125.5 -50t-125.5 50t-52.5 148t52.5 148t125.5 50t125.5 -50t52.5 -148zM616 198q0 24 -12 37t-30 13q-19 0 -30.5 -13t-11.5 -37t11.5 -36.5t30.5 -12.5q18 0 30 12.5
t12 36.5zM1007 198q0 24 -12 37t-30 13q-19 0 -30.5 -13t-11.5 -37t11.5 -36.5t30.5 -12.5q18 0 30 12.5t12 36.5z" />
    <glyph glyph-name="guilsinglleft" unicode="&#x2039;" horiz-adv-x="311" 
d="M271 349l-213 -44v-30l213 -44v-186l-231 166v158l231 166v-186z" />
    <glyph glyph-name="guilsinglright" unicode="&#x203a;" horiz-adv-x="311" 
d="M253 275v30l-213 44v186l231 -166v-158l-231 -166v186z" />
    <glyph glyph-name="Euro" unicode="&#x20ac;" horiz-adv-x="770" 
d="M515 279l215 -9q-3 -48 -22 -95.5t-54 -89.5t-92.5 -68.5t-128.5 -26.5q-137 0 -223 80.5t-97 232.5h-78l11 18h66v24q0 20 1 29h-78l11 18h68q12 148 98.5 228t214.5 80q70 0 128 -24t93.5 -62.5t55.5 -82t24 -87.5l-216 -19q-6 30 -29 52.5t-61 22.5q-43 0 -72.5 -28
t-38.5 -80h153l-11 -18h-145q-1 -9 -1 -29q0 -16 1 -24h156l-11 -18h-143q9 -55 39.5 -84t77.5 -29q36 0 60 25.5t28 63.5z" />
    <glyph glyph-name="i.ss01" unicode="&#xe000;" horiz-adv-x="290" 
d="M145 528q-45 0 -72.5 25.5t-27.5 69.5t27.5 69.5t72.5 25.5t72.5 -25.5t27.5 -69.5q0 -45 -27.5 -70t-72.5 -25zM50 0v500h190v-500h-190z" />
    <glyph glyph-name="j.ss01" unicode="&#xe001;" horiz-adv-x="290" 
d="M145 528q-45 0 -72.5 25.5t-27.5 69.5t27.5 69.5t72.5 25.5t72.5 -25.5t27.5 -69.5q0 -45 -27.5 -70t-72.5 -25zM240 500v-578q0 -68 -36.5 -115t-112.5 -47q-29 0 -101 10v190q34 0 47 10.5t13 46.5v483h190z" />
    <glyph glyph-name="l.ss01" unicode="&#xe002;" horiz-adv-x="290" 
d="M240 710v-710h-190v690z" />
    <glyph glyph-name="i.ss02" unicode="&#xe003;" horiz-adv-x="285" 
d="M50 538v19h190v-19h-190zM50 0v500h190v-500h-190z" />
    <glyph glyph-name="j.ss02" unicode="&#xe004;" horiz-adv-x="290" 
d="M50 538v19h190v-19h-190zM240 500v-578q0 -68 -36.5 -115t-112.5 -47q-29 0 -101 10v190q34 0 47 10.5t13 46.5v483h190z" />
    <glyph glyph-name="period.ss01" unicode="&#xe005;" 
d="M45 105q0 48 25 79t76 31t76 -31t25 -79t-25 -79t-76 -31t-76 31t-25 79z" />
    <glyph glyph-name="comma.ss01" unicode="&#xe006;" 
d="M247 86q0 -100 -44.5 -150t-152.5 -50v18q51 0 81.5 25.5t30.5 65.5q-62 0 -89.5 30.5t-27.5 79.5q0 48 25 79t76 31q101 0 101 -129z" />
    <glyph glyph-name="colon.ss01" unicode="&#xe007;" 
d="M45 394q0 48 25 79t76 31t76 -31t25 -79t-25 -79t-76 -31t-76 31t-25 79zM45 105q0 48 25 79t76 31t76 -31t25 -79t-25 -79t-76 -31t-76 31t-25 79z" />
    <glyph glyph-name="semicolon.ss01" unicode="&#xe008;" 
d="M45 395q0 48 25 79t76 31t76 -31t25 -79t-25 -79t-76 -31t-76 31t-25 79zM247 86q0 -100 -44.5 -150t-152.5 -50v18q51 0 81.5 25.5t30.5 65.5q-62 0 -89.5 30.5t-27.5 79.5q0 48 25 79t76 31q101 0 101 -129z" />
    <glyph glyph-name="ellipsis.ss01" unicode="&#xe009;" horiz-adv-x="876" 
d="M629 106q0 48 25 79t76 31t76 -31t25 -79t-25 -79t-76 -31t-76 31t-25 79zM45 105q0 48 25 79t76 31t76 -31t25 -79t-25 -79t-76 -31t-76 31t-25 79zM337 105q0 48 25 79t76 31t76 -31t25 -79t-25 -79t-76 -31t-76 31t-25 79z" />
    <glyph glyph-name="exclam.ss01" unicode="&#xe00a;" horiz-adv-x="310" 
d="M70 261l-20 429h210l-20 -429h-170zM54 105q0 48 25 79t76 31t76 -31t25 -79t-25 -79t-76 -31t-76 31t-25 79z" />
    <glyph glyph-name="exclamdown.ss01" unicode="&#xe00b;" horiz-adv-x="310" 
d="M54 395q0 48 25 79t76 31t76 -31t25 -79t-25 -79t-76 -31t-76 31t-25 79zM260 -190h-210l20 429h170z" />
    <glyph glyph-name="question.ss01" unicode="&#xe00c;" horiz-adv-x="625" 
d="M590 505q0 -50 -24 -87t-58 -56t-67.5 -34t-57.5 -30.5t-24 -35.5h-190q0 44 22 76.5t53 49.5t62 29t53 24t22 26t-12.5 26t-43.5 12q-63 0 -73 -68l-217 19q4 48 22 89.5t51 77t88.5 56.5t127.5 21q129 0 197.5 -59.5t68.5 -135.5zM164 105q0 48 25 79t76 31t76 -31
t25 -79t-25 -79t-76 -31t-76 31t-25 79z" />
    <glyph glyph-name="questiondown.ss01" unicode="&#xe00d;" horiz-adv-x="625" 
d="M461 395q0 -48 -25 -79t-76 -31t-76 31t-25 79t25 79t76 31t76 -31t25 -79zM35 -5q0 50 24 87t57.5 56t67.5 34t58 30.5t24 35.5h190q0 -44 -22 -76.5t-53 -49.5t-62 -29t-53 -24t-22 -26t12.5 -26t43.5 -12q63 0 73 68l217 -19q-4 -48 -22 -89.5t-51 -77t-88.5 -56.5
t-127.5 -21q-129 0 -197.5 59.5t-68.5 135.5z" />
    <glyph glyph-name="periodcentered.ss01" unicode="&#xe00e;" 
d="M45 395q0 48 25 79t76 31t76 -31t25 -79t-25 -79t-76 -31t-76 31t-25 79z" />
    <glyph glyph-name="quotesinglbase.ss01" unicode="&#xe00f;" 
d="M247 86q0 -100 -44.5 -150t-152.5 -50v18q51 0 81.5 25.5t30.5 65.5q-62 0 -89.5 30.5t-27.5 79.5q0 48 25 79t76 31q101 0 101 -129z" />
    <glyph glyph-name="quotedblbase.ss01" unicode="&#xe010;" horiz-adv-x="584" 
d="M247 86q0 -100 -44.5 -150t-152.5 -50v18q51 0 81.5 25.5t30.5 65.5q-62 0 -89.5 30.5t-27.5 79.5q0 48 25 79t76 31q101 0 101 -129zM539 86q0 -100 -44.5 -150t-152.5 -50v18q51 0 81.5 25.5t30.5 65.5q-62 0 -89.5 30.5t-27.5 79.5q0 48 25 79t76 31q101 0 101 -129z
" />
    <glyph glyph-name="quotedblleft.ss01" unicode="&#xe011;" horiz-adv-x="584" 
d="M45 500q0 100 44.5 150t152.5 50v-18q-51 0 -81.5 -25.5t-30.5 -65.5q62 0 89.5 -30.5t27.5 -79.5q0 -48 -25 -79t-76 -31q-101 0 -101 129zM337 500q0 100 44.5 150t152.5 50v-18q-51 0 -81.5 -25.5t-30.5 -65.5q62 0 89.5 -30.5t27.5 -79.5q0 -48 -25 -79t-76 -31
q-101 0 -101 129z" />
    <glyph glyph-name="quotedblright.ss01" unicode="&#xe012;" horiz-adv-x="584" 
d="M247 566q0 -100 -44.5 -150t-152.5 -50v18q51 0 81.5 25.5t30.5 65.5q-62 0 -89.5 30.5t-27.5 79.5q0 48 25 79t76 31q101 0 101 -129zM539 566q0 -100 -44.5 -150t-152.5 -50v18q51 0 81.5 25.5t30.5 65.5q-62 0 -89.5 30.5t-27.5 79.5q0 48 25 79t76 31q101 0 101 -129
z" />
    <glyph glyph-name="quoteleft.ss01" unicode="&#xe013;" 
d="M45 500q0 100 44.5 150t152.5 50v-18q-51 0 -81.5 -25.5t-30.5 -65.5q62 0 89.5 -30.5t27.5 -79.5q0 -48 -25 -79t-76 -31q-101 0 -101 129z" />
    <glyph glyph-name="quoteright.ss01" unicode="&#xe014;" 
d="M247 566q0 -100 -44.5 -150t-152.5 -50v18q51 0 81.5 25.5t30.5 65.5q-62 0 -89.5 30.5t-27.5 79.5q0 48 25 79t76 31q101 0 101 -129z" />
    <glyph glyph-name="Q.alt" horiz-adv-x="785" 
d="M389 -10q-67 0 -128.5 23t-111.5 66t-79.5 112t-29.5 154t29.5 154t79.5 112t111.5 66t128.5 23t128.5 -23t111.5 -66t79.5 -112t29.5 -154q0 -43 -19 -75.5t-50.5 -52t-79.5 -31t-98 -16t-114 -4.5v-30q49 0 76 -1t67 -4t64.5 -10.5t52 -20.5t47 -33.5t33.5 -49.5
l10 -21l-171 -83l-5 10q-20 43 -49 55t-113 12zM543 345q0 73 -44.5 114t-109.5 41t-109.5 -41t-44.5 -114t44.5 -114t109.5 -41t109.5 41t44.5 114z" />
    <glyph glyph-name="D.ss01" horiz-adv-x="728" 
d="M333 0h-283v690h283q156 0 255.5 -88t99.5 -257t-99.5 -257t-255.5 -88zM240 18h79q174 0 174 240t-174 240h-79v-480z" />
    <glyph glyph-name="T.ss01" horiz-adv-x="700" 
d="M255 672h-215v18h620v-18h-215v-672h-190v672z" />
    </font>
</defs>
</svg>
